<svg xmlns="http://www.w3.org/2000/svg" xmlns:xlink="http://www.w3.org/1999/xlink" viewBox="0 0 1024 1024"><defs><style>.cls-1,.cls-5{fill:#fff;}.cls-2{fill:url(#linear-gradient);}.cls-3{fill:none;stroke:#fff;stroke-miterlimit:10;stroke-width:112.31px;}.cls-4{clip-path:url(#clip-path);}.cls-5{opacity:0.3;}</style><linearGradient id="linear-gradient" x1="512" y1="1024" x2="512" gradientUnits="userSpaceOnUse"><stop offset="0" stop-color="#495197"/><stop offset="0.44" stop-color="#963883"/><stop offset="0.82" stop-color="#d42473"/><stop offset="1" stop-color="#ec1c6d"/></linearGradient><clipPath id="clip-path"><path class="cls-1" d="M826.49,666.55c-8.13-13.47-31.3-23.8-52.9-23.8-26,0-49.77,7.52-49.77,29.43,0,20.66,24.73,24.42,51,27.55,45.71,5.63,94.54,13.77,94.54,68.86,0,42.26-35.37,66-74.19,68.87v31.31H755.44V839c-35.06-3.13-67.62-19.1-82.33-53.53L710,769.85c8.46,20,36.32,32.87,62.3,32.87,28.17,0,54.15-9.71,54.15-34.13,0-20.66-26-28.17-55.09-31.61-44.76-5-88.59-12.84-88.59-64.8,0-41,36.31-59.79,72.63-64.17V580.77h39.75V608c26.61,4.07,51,14.08,65.11,42.88Z"/></clipPath></defs><g id="Layer_2" data-name="Layer 2"><g id="Layer_1-2" data-name="Layer 1"><rect class="cls-2" width="1024" height="1024" rx="257.03"/><path class="cls-3" d="M869.08,431.31c-241.6,0-437.46,195.86-437.46,437.46"/><path class="cls-3" d="M154.62,592.69c241.6,0,437.46-195.86,437.46-437.46"/><path class="cls-1" d="M826.49,666.55c-8.13-13.47-31.3-23.8-52.9-23.8-26,0-49.77,7.52-49.77,29.43,0,20.66,24.73,24.42,51,27.55,45.71,5.63,94.54,13.77,94.54,68.86,0,42.26-35.37,66-74.19,68.87v31.31H755.44V839c-35.06-3.13-67.62-19.1-82.33-53.53L710,769.85c8.46,20,36.32,32.87,62.3,32.87,28.17,0,54.15-9.71,54.15-34.13,0-20.66-26-28.17-55.09-31.61-44.76-5-88.59-12.84-88.59-64.8,0-41,36.31-59.79,72.63-64.17V580.77h39.75V608c26.61,4.07,51,14.08,65.11,42.88Z"/><g class="cls-4"><path class="cls-5" d="M625.16,615.05c0,39,67.21,70.55,150.13,70.55S925.42,654,925.42,615.05s-67.21-70.53-150.13-70.53S625.16,576.1,625.16,615.05Z"/><path class="cls-5" d="M620.46,710.58c0,39,67.21,70.54,150.12,70.54s150.14-31.58,150.14-70.54-67.22-70.53-150.14-70.53S620.46,671.63,620.46,710.58Z"/></g></g></g></svg>